<svg id="uuid-8ee92545-9c5e-402e-8485-05844fa86074" xmlns="http://www.w3.org/2000/svg" xmlns:xlink="http://www.w3.org/1999/xlink" viewBox="-20 -20 903 163">
  <rect x="-20" y="-20" width="903" height="163" rx="22" ry="22" fill="grey" opacity="0.35"/>
  <defs>
    <style>
      .uuid-31bde811-2cfe-461e-bc8e-34648d81718c{clip-path:url(#uuid-b82ae3a0-6abe-4f93-8da2-907f1e6e5218)}.uuid-7dcc04b4-cf03-4c55-8f97-1646fbf99bb6{fill:none}.uuid-7dcc04b4-cf03-4c55-8f97-1646fbf99bb6,.uuid-eb26ea1e-1204-4a51-944a-275c7c72da82,.uuid-c75e44ab-7039-4e35-a079-936778adfd58,.uuid-0aa184a4-5377-4afd-afb4-beca9b43f166{stroke-width:0px}.uuid-97c34ddf-fbb2-444a-a06c-cfc33c77b7c7{clip-path:url(#uuid-b0034d63-b640-45a7-aab4-dec907512182)}.uuid-c75e44ab-7039-4e35-a079-936778adfd58{fill:#dab25a}.uuid-0aa184a4-5377-4afd-afb4-beca9b43f166{fill:#fff}
    </style>
    <clipPath id="uuid-b82ae3a0-6abe-4f93-8da2-907f1e6e5218">
      <rect class="uuid-7dcc04b4-cf03-4c55-8f97-1646fbf99bb6" width="863" height="123"/>
    </clipPath>
    <clipPath id="uuid-b0034d63-b640-45a7-aab4-dec907512182">
      <rect class="uuid-7dcc04b4-cf03-4c55-8f97-1646fbf99bb6" width="862.08" height="122.47"/>
    </clipPath>
  </defs>
  <g id="uuid-64c70fa4-bbee-4dcd-ac8f-a243005485aa">
    <g class="uuid-31bde811-2cfe-461e-bc8e-34648d81718c">
      <g class="uuid-97c34ddf-fbb2-444a-a06c-cfc33c77b7c7" fill="currentColor">
        <path class="uuid-eb26ea1e-1204-4a51-944a-275c7c72da82" d="M240.78,36.41h-16.78c-.38.02-.69.31-.72.69v45.44c.04.37.32.65.69.68h4.15c.4-.02.71-.33.73-.73v-15.67h11.07c9.14,0,18.36-4.75,18.36-15.37v-.13c0-9.06-6.87-14.91-17.5-14.91h0ZM252.65,51.65c0,6.01-5.04,10.05-12.53,10.05h-11.27v-20.11h11.54c7.68,0,12.27,3.71,12.27,9.92v.14h0Z"/>
        <path class="uuid-eb26ea1e-1204-4a51-944a-275c7c72da82" d="M382.8,72.2c-.29-.26-.72-.27-1.01-.01-4.04,3.79-8.1,6.29-14.44,6.29-9.95,0-17.76-8.35-17.76-19.02v-.13c0-10.76,7.63-18.88,17.76-18.88,6.61,0,10.95,3.1,14.02,5.94.3.26.75.25,1.04-.03l2.81-3.03c.26-.3.25-.74-.03-1.03-4-3.71-8.99-7.04-17.77-7.04-6.54,0-12.56,2.53-16.94,7.14-4.29,4.51-6.65,10.57-6.65,17.06v.14c0,13.72,10.05,24.07,23.39,24.07,9.02,0,14.3-3.89,18.25-7.83.26-.29.25-.73,0-1.01l-2.66-2.62h0Z"/>
        <path class="uuid-eb26ea1e-1204-4a51-944a-275c7c72da82" d="M543.54,36.51h-3.97c-.39.02-.71.33-.72.73v36.19l-28.53-36.43c-.28-.37-.45-.47-.82-.49h-3.99c-.38.02-.69.32-.71.7v45.41c.03.38.33.68.71.7h4.01c.39-.02.69-.33.71-.71v-37.08l29.31,37.36c.29.35.46.44.88.43h3.15c.39-.02.7-.32.73-.71v-45.36c0-.4-.33-.73-.73-.74h-.03Z"/>
        <path class="uuid-eb26ea1e-1204-4a51-944a-275c7c72da82" d="M803.15,78.13h-25.33v-40.92c-.03-.38-.33-.68-.71-.71h-4.12c-.4,0-.72.33-.73.73v45.36c.02.4.33.71.73.73h30.17c.39-.01.71-.32.73-.72v-3.75c-.02-.39-.33-.7-.73-.72h0Z"/>
        <path class="uuid-eb26ea1e-1204-4a51-944a-275c7c72da82" d="M178.09,57.02c-8.25-1.77-12.43-3.63-12.43-8.86v-.13c0-4.32,3.98-7.33,9.68-7.33,4.69,0,8.78,1.5,12.81,4.67.3.22.72.2.98-.08l2.45-3.25c.19-.3.14-.67-.09-.92-4.87-3.82-9.69-5.47-16.01-5.47-8.92,0-15.39,5.41-15.39,12.85v.14c0,7.31,4.4,11.12,15.68,13.58,10.01,2.12,11.91,4.68,11.91,8.66v.13c0,4.55-4.17,7.73-10.15,7.73s-10.39-1.79-15.33-6.15c-.3-.25-.74-.22-1.01.05l-2.55,3.03c-.23.3-.2.72.06.99,5.58,4.86,11.51,7.14,18.64,7.14,9.56,0,15.98-5.35,15.98-13.31v-.13c0-7-4.55-10.98-15.22-13.32v-.02Z"/>
        <path class="uuid-eb26ea1e-1204-4a51-944a-275c7c72da82" d="M447.77,36.51h-32.37c-.39.02-.69.33-.72.72v45.39c.03.38.33.69.71.71h32.37c.4-.02.71-.34.73-.74v-3.66c-.02-.39-.32-.7-.71-.73h-27.54v-15.93h23.8c.4,0,.72-.34.73-.74v-3.66c-.02-.39-.33-.69-.71-.72h-23.82v-15.53h27.53c.39-.02.7-.34.72-.73v-3.66c-.02-.4-.33-.71-.72-.73h0Z"/>
        <path class="uuid-eb26ea1e-1204-4a51-944a-275c7c72da82" d="M609.58,36.51h-32.37c-.39.02-.69.33-.72.72v45.39c.03.38.33.69.71.71h32.37c.4-.02.71-.34.73-.74v-3.66c-.02-.39-.32-.7-.71-.73h-27.54v-15.93h23.8c.4,0,.72-.34.73-.74v-3.66c-.02-.39-.33-.69-.71-.72h-23.82v-15.53h27.53c.39-.02.7-.34.72-.73v-3.66c-.02-.4-.33-.71-.72-.73h0Z"/>
        <path class="uuid-eb26ea1e-1204-4a51-944a-275c7c72da82" d="M672.97,36.51h-32.37c-.39.02-.69.33-.72.72v45.39c.03.38.33.69.71.71h32.37c.4-.02.71-.34.73-.74v-3.66c-.02-.39-.32-.7-.71-.73h-27.54v-15.93h23.8c.4,0,.72-.34.73-.74v-3.66c-.02-.39-.33-.69-.71-.72h-23.82v-15.53h27.53c.39-.02.7-.34.72-.73v-3.66c-.02-.4-.33-.71-.72-.73h0Z"/>
        <path class="uuid-eb26ea1e-1204-4a51-944a-275c7c72da82" d="M860.86,41.63c.39-.02.71-.34.72-.73v-3.66c-.02-.4-.33-.71-.72-.73h-32.37c-.39.02-.69.33-.72.72v45.39c.03.38.33.69.71.71h32.37c.4-.02.71-.34.73-.74v-3.66c-.02-.39-.32-.7-.71-.73h-27.54v-15.93h23.8c.4,0,.72-.34.73-.74v-3.66c-.02-.39-.33-.69-.71-.72h-23.82v-15.53h27.53Z"/>
        <path class="uuid-eb26ea1e-1204-4a51-944a-275c7c72da82" d="M720.58,36.51h-15.52c-.39.02-.7.32-.72.71v45.39c.02.39.33.7.72.72h15.52c14.35,0,24.78-9.85,24.78-23.41v-.13c0-13.48-10.42-23.27-24.78-23.27h0ZM739.59,60.05c0,10.65-7.82,18.09-19.01,18.09h-10.68v-36.44h10.68c11.19,0,19.01,7.49,19.01,18.22v.13Z"/>
        <path class="uuid-eb26ea1e-1204-4a51-944a-275c7c72da82" d="M321.38,64.68c-2.19.3-5.61.76-9.59,1.31l-13.68-31.88-21.92,49.77h5.13c.4,0,.73-.18.9-.56l2.13-5.02.67-1.58c1.33-.42,4.97-1.89,10.59-3.62,3.6-1.12,7.74-2.3,12.06-3.45l.3.71.02.05,5.36,12.9c.16.37.46.58.88.59h5.22l-6.41-14.94-.27-.62c2.7-.68,5.42-1.33,8.06-1.92,2.32-.51,3.57-.7,3.5-1.41-.08-.72-1.45-.52-2.96-.31v-.02ZM288,69.75l1.86-4.27,8.13-19.03,7.94,19.03.53,1.26c-6.24.9-13.05,1.96-18.46,3.01Z"/>
        <path class="uuid-c75e44ab-7039-4e35-a079-936778adfd58" d="M61.24,122.48c33.82,0,61.24-27.42,61.24-61.24S95.06,0,61.24,0,0,27.42,0,61.24s27.42,61.24,61.24,61.24Z"/>
        <path class="uuid-0aa184a4-5377-4afd-afb4-beca9b43f166" d="M70.3,64.94c-1.71-.28-3.34-.32-3.66,1.49-1.17,6.64-2.08,32.21-2.08,42.63,0,1.18.03,2.23.76,2.23.67,0,.78-1.1.85-1.97.96-11.6,3.31-27.14,4.78-33.17.97-3.93,2.02-8.2,2.15-8.98.19-1.25-1.39-2-2.8-2.24h0Z"/>
        <path class="uuid-0aa184a4-5377-4afd-afb4-beca9b43f166" d="M57.08,66.46c-.3-1.83-2.38-1.79-3.9-1.52-1.25.22-2.81.96-2.58,2.24.17.89,1.4,4.28,2.72,9.72,1.57,6.43,3.23,14.75,4.32,22.34.29,2.05.36,3.15,1.1,3.14s.7-1.21.64-2.53c-.28-6.36-.87-24.6-2.31-33.4h.01Z"/>
        <path class="uuid-0aa184a4-5377-4afd-afb4-beca9b43f166" d="M99.55,52.52c-10.89-3.01-24.25-6.13-40.9-7.87-1.08-.11-1.38-.15-1.37-.39,0-.2.28-.51,1.34-.58,2.36-.15,6.03-.15,10.86.24,5.92.48,9.7,1.18,10.44,1.14,1.67-.08,2.03-1.2,1.88-3.05-.12-1.43-.51-2.84-1.36-3.13-3.85-1.34-25.47-1.51-34.86.56-3.52.78-4.46,1.36-4.76,2.48-.21.81-.38,2.01-.41,2.77-.05,1.26.17,2.46,1.41,3.16,1.35.75,8.11,1.16,13.84,1.67,9.52.85,14.03,1.64,16.69,2.13,1.15.21,1.46.57,1.46.84,0,.23-.26.28-.78.23-18.05-1.9-37.37-.28-48.77,1.5-2.79.44-4.96.92-4.06,5.14.75,3.54,2.04,3.56,3.62,3.26,18.15-3.48,30.48-4.35,40.01-4.24,14.18.32,26.4,2.5,35.62,4.25,2.01.38,3.08-1.14,3.68-3.47,1.07-4.17.29-5.56-3.59-6.63h.01Z"/>
        <path class="uuid-0aa184a4-5377-4afd-afb4-beca9b43f166" d="M60.25,33.52c.53.12,1.44.07,1.95,0,.63-.09,1.09-.18,1.02-1.13l-1.4-19.21v.03c-.03-.94-.05-1.59-.05-1.8,0-1.6-1.09-1.48-1.09,0,0,.21-.02.85-.05,1.77l-1.38,18.97c-.11,1.18.42,1.25.98,1.37h.02Z"/>
      </g>
    </g>
  </g>
</svg>
